<svg width="167" height="167" viewBox="0 0 167 167" fill="none" xmlns="http://www.w3.org/2000/svg">
<path d="M0 83.5C0 12.525 12.525 0 83.5 0C154.475 0 167 12.525 167 83.5C167 154.475 154.475 167 83.5 167C12.525 167 0 154.475 0 83.5Z" fill="#1CA0F1"/>
<rect opacity="0.3" x="49" y="48" width="18" height="18" rx="2" fill="white"/>
<rect x="49" y="74" width="18" height="18" rx="2" fill="white"/>
<rect x="75" y="48" width="18" height="18" rx="2" fill="white"/>
<rect x="75" y="74" width="18" height="18" rx="2" fill="white"/>
<rect x="101" y="48" width="18" height="18" rx="2" fill="white"/>
<rect x="101" y="74" width="18" height="18" rx="2" fill="white"/>
<rect x="49" y="100" width="18" height="18" rx="2" fill="white"/>
<rect x="75" y="100" width="18" height="18" rx="2" fill="white"/>
<rect x="101" y="100" width="18" height="18" rx="2" fill="white"/>
</svg>
