<svg width="167" height="167" viewBox="0 0 167 167" fill="none" xmlns="http://www.w3.org/2000/svg">
<path d="M0 83.5C0 12.525 12.525 0 83.5 0C154.475 0 167 12.525 167 83.5C167 154.475 154.475 167 83.5 167C12.525 167 0 154.475 0 83.5Z" fill="#1CA0F1"/>
<circle opacity="0.3" cx="84" cy="71.75" r="30" fill="white"/>
<path opacity="0.3" fill-rule="evenodd" clip-rule="evenodd" d="M77.1549 106.816C77.9696 108.911 80.3331 109.947 82.4279 109.132C83.3793 108.762 84.4372 108.764 85.3866 109.139C87.4675 109.961 89.8208 108.941 90.6428 106.86L100.192 82.6894C102.266 77.4391 98.3965 71.75 92.7513 71.75H75.2128C69.5859 71.75 65.7173 77.4053 67.7568 82.6496L77.1549 106.816ZM90.5459 79.25C91.9572 79.25 92.9246 80.6723 92.406 81.9849L85.7841 98.7465C85.1158 100.438 82.7193 100.432 82.06 98.7366L75.5416 81.9749C75.0317 80.6638 75.9989 79.25 77.4056 79.25H90.5459Z" fill="white"/>
<path opacity="0.3" d="M76.5 120.5H91.5V126C91.5 127.105 90.6046 128 89.5 128H78.5C77.3954 128 76.5 127.105 76.5 126V120.5Z" fill="white"/>
<path fill-rule="evenodd" clip-rule="evenodd" d="M69 103C69 101.895 69.8954 101 71 101H97C98.1046 101 99 101.895 99 103V105C99 106.105 98.1046 107 97 107H71C69.8954 107 69 106.105 69 105V103ZM69 111C69 109.895 69.8954 109 71 109H97C98.1046 109 99 109.895 99 111V113C99 114.105 98.1046 115 97 115H71C69.8954 115 69 114.105 69 113V111ZM71 117C69.8954 117 69 117.895 69 119V120C69 121.105 69.8954 122 71 122H97C98.1046 122 99 121.105 99 120V119C99 117.895 98.1046 117 97 117H71Z" fill="white"/>
</svg>
